<svg xmlns="http://www.w3.org/2000/svg" xmlns:xlink="http://www.w3.org/1999/xlink" style="height: 0; position: absolute">
	<symbol id="codepen" viewBox="0 0 16 16">
		<path d="M15.988 5.443c-.004-.02-.007-.04-.012-.058l-.01-.033c-.006-.017-.012-.034-.02-.05-.003-.012-.01-.023-.014-.034l-.023-.045-.02-.032-.03-.04-.024-.03c-.01-.013-.022-.026-.034-.038l-.027-.027-.04-.032-.03-.024-.012-.01L8.38.117c-.23-.155-.53-.155-.76 0L.305 4.99.296 5c-.012.007-.022.015-.032.023-.014.01-.027.02-.04.032l-.027.027-.034.037-.024.03-.03.04c-.006.012-.013.022-.02.033l-.023.045-.015.034c-.007.016-.012.033-.018.05l-.01.032c-.005.02-.01.038-.012.058l-.006.03C.002 5.5 0 5.53 0 5.56v4.875c0 .03.002.06.006.09l.007.03c.003.02.006.04.013.058l.01.033c.006.018.01.035.018.05l.015.033c.006.016.014.03.023.047l.02.03c.008.016.018.03.03.042.007.01.014.02.023.03.01.012.02.025.034.036.01.01.018.02.028.026l.04.033.03.023.01.01 7.31 4.876c.116.078.248.117.382.116.134 0 .266-.04.38-.116l7.314-4.875.01-.01c.012-.007.022-.015.032-.023.014-.01.027-.02.04-.032l.027-.027.034-.037.024-.03.03-.04.02-.032.023-.046.015-.033.018-.052.01-.033c.005-.02.01-.038.013-.058 0-.01.003-.02.004-.03.004-.03.006-.06.006-.09V5.564c0-.03-.002-.06-.006-.09l-.007-.03zM8 9.626L5.568 8 8 6.374 10.432 8 8 9.626zM7.312 5.18l-2.98 1.993-2.406-1.61 5.386-3.59v3.206zM3.095 8l-1.72 1.15v-2.3L3.095 8zm1.237.828l2.98 1.993v3.208l-5.386-3.59 2.406-1.61zm4.355 1.993l2.98-1.993 2.407 1.61-5.387 3.59v-3.206zM12.905 8l1.72-1.15v2.3L12.905 8zm-1.237-.827L8.688 5.18V1.97l5.386 3.59-2.406 1.61z" fill-rule="nonzero"/>
	</symbol>
	<symbol id="dribbble" viewBox="0 0 16 16">
		<path d="M8 16c-4.41 0-8-3.59-8-8s3.59-8 8-8 8 3.59 8 8-3.59 8-8 8zm6.747-6.905c-.234-.074-2.115-.635-4.257-.292.894 2.456 1.258 4.456 1.328 4.872 1.533-1.037 2.624-2.68 2.93-4.58zM10.67 14.3c-.102-.6-.5-2.688-1.46-5.18l-.044.014C5.312 10.477 3.93 13.15 3.806 13.4c1.158.905 2.614 1.444 4.194 1.444.947 0 1.85-.194 2.67-.543zm-7.747-1.72c.155-.266 2.03-3.37 5.555-4.51.09-.03.18-.056.27-.08-.173-.39-.36-.778-.555-1.16C4.78 7.85 1.47 7.807 1.17 7.8l-.003.208c0 1.755.665 3.358 1.756 4.57zM1.31 6.61c.307.005 3.122.017 6.318-.832-1.132-2.012-2.353-3.705-2.533-3.952-1.912.902-3.34 2.664-3.784 4.785zM6.4 1.368c.188.253 1.43 1.943 2.548 4 2.43-.91 3.46-2.293 3.582-2.468C11.323 1.827 9.736 1.176 8 1.176c-.55 0-1.087.066-1.6.19zm6.89 2.322c-.145.194-1.29 1.662-3.816 2.694.16.325.31.656.453.99.05.117.1.235.147.352 2.274-.286 4.533.172 4.758.22-.015-1.613-.59-3.094-1.543-4.257z"/>
	</symbol>
	<symbol id="designernews" viewBox="0 0 16 16">
		<path d="M7.514 7.988c0-2.555-1.57-4.287-4.56-4.287H0v8.6h3.016c2.903 0 4.498-1.75 4.498-4.31zM5.37 8c0 1.844-.946 2.642-2.467 2.642H2.13V5.358h.773C4.36 5.358 5.37 6.193 5.37 8zM16 12.3V3.7h-1.98v4.81L10.853 3.7h-2.07v8.6h1.982V7.152l3.39 5.146H16z"/>
	</symbol>
	<symbol id="facebook" viewBox="0 0 16 16">
		<path d="M15.117 0H.883C.395 0 0 .395 0 .883v14.234c0 .488.395.883.883.883h7.663V9.804H6.46V7.39h2.086V5.607c0-2.066 1.262-3.19 3.106-3.19.883 0 1.642.064 1.863.094v2.16h-1.28c-1 0-1.195.476-1.195 1.176v1.54h2.39l-.31 2.416h-2.08V16h4.077c.488 0 .883-.395.883-.883V.883C16 .395 15.605 0 15.117 0" fill-rule="nonzero"/>
	</symbol>
	<symbol id="flickr" viewBox="0 0 16 16">
		<path d="M0 8c0 2.05 1.662 3.71 3.71 3.71 2.05 0 3.713-1.66 3.713-3.71S5.76 4.29 3.71 4.29C1.663 4.29 0 5.95 0 8zm8.577 0c0 2.05 1.662 3.71 3.712 3.71C14.337 11.71 16 10.05 16 8s-1.662-3.71-3.71-3.71c-2.05 0-3.713 1.66-3.713 3.71z"/>
	</symbol>
	<symbol id="github" viewBox="0 0 16 16">
		<path d="M8 0C3.58 0 0 3.582 0 8c0 3.535 2.292 6.533 5.47 7.59.4.075.547-.172.547-.385 0-.19-.007-.693-.01-1.36-2.226.483-2.695-1.073-2.695-1.073-.364-.924-.89-1.17-.89-1.17-.725-.496.056-.486.056-.486.803.056 1.225.824 1.225.824.714 1.223 1.873.87 2.33.665.072-.517.278-.87.507-1.07-1.777-.2-3.644-.888-3.644-3.953 0-.873.31-1.587.823-2.147-.083-.202-.358-1.015.077-2.117 0 0 .672-.215 2.2.82.638-.178 1.323-.266 2.003-.27.68.004 1.364.092 2.003.27 1.527-1.035 2.198-.82 2.198-.82.437 1.102.163 1.915.08 2.117.513.56.823 1.274.823 2.147 0 3.073-1.87 3.75-3.653 3.947.287.246.543.735.543 1.48 0 1.07-.01 1.933-.01 2.195 0 .215.144.463.55.385C13.71 14.53 16 11.534 16 8c0-4.418-3.582-8-8-8"/>
	</symbol>
	<symbol id="hackernews" viewBox="0 0 16 16">
		<path d="M0 0v16h16V0H0zm8.92 8.96v3H7.25v-3l-2.75-5h1.96l1.66 3.48L9.7 3.96h1.88l-2.66 5z"/>
	</symbol>
	<symbol id="instagram" viewBox="0 0 16 16">
		<path d="M8 0C5.827 0 5.555.01 4.702.048 3.85.088 3.27.222 2.76.42c-.526.204-.973.478-1.417.923-.445.444-.72.89-.923 1.417-.198.51-.333 1.09-.372 1.942C.008 5.555 0 5.827 0 8s.01 2.445.048 3.298c.04.852.174 1.433.372 1.942.204.526.478.973.923 1.417.444.445.89.72 1.417.923.51.198 1.09.333 1.942.372.853.04 1.125.048 3.298.048s2.445-.01 3.298-.048c.852-.04 1.433-.174 1.942-.372.526-.204.973-.478 1.417-.923.445-.444.72-.89.923-1.417.198-.51.333-1.09.372-1.942.04-.853.048-1.125.048-3.298s-.01-2.445-.048-3.298c-.04-.852-.174-1.433-.372-1.942-.204-.526-.478-.973-.923-1.417-.444-.445-.89-.72-1.417-.923-.51-.198-1.09-.333-1.942-.372C10.445.008 10.173 0 8 0zm0 1.44c2.136 0 2.39.01 3.233.048.78.036 1.203.166 1.485.276.374.145.64.318.92.598.28.28.453.546.598.92.11.282.24.705.276 1.485.038.844.047 1.097.047 3.233s-.01 2.39-.048 3.233c-.036.78-.166 1.203-.276 1.485-.145.374-.318.64-.598.92-.28.28-.546.453-.92.598-.282.11-.705.24-1.485.276-.844.038-1.097.047-3.233.047s-2.39-.01-3.233-.048c-.78-.036-1.203-.166-1.485-.276-.374-.145-.64-.318-.92-.598-.28-.28-.453-.546-.598-.92-.11-.282-.24-.705-.276-1.485C1.45 10.39 1.44 10.136 1.44 8s.01-2.39.048-3.233c.036-.78.166-1.203.276-1.485.145-.374.318-.64.598-.92.28-.28.546-.453.92-.598.282-.11.705-.24 1.485-.276C5.61 1.45 5.864 1.44 8 1.44zm0 2.452c-2.27 0-4.108 1.84-4.108 4.108 0 2.27 1.84 4.108 4.108 4.108 2.27 0 4.108-1.84 4.108-4.108 0-2.27-1.84-4.108-4.108-4.108zm0 6.775c-1.473 0-2.667-1.194-2.667-2.667 0-1.473 1.194-2.667 2.667-2.667 1.473 0 2.667 1.194 2.667 2.667 0 1.473-1.194 2.667-2.667 2.667zm5.23-6.937c0 .53-.43.96-.96.96s-.96-.43-.96-.96.43-.96.96-.96.96.43.96.96z"/>
	</symbol>
	<symbol id="linkedin" viewBox="0 0 16 16">
		<path d="M13.632 13.635h-2.37V9.922c0-.886-.018-2.025-1.234-2.025-1.235 0-1.424.964-1.424 1.96v3.778h-2.37V6H8.51V7.04h.03c.318-.6 1.092-1.233 2.247-1.233 2.4 0 2.845 1.58 2.845 3.637v4.188zM3.558 4.955c-.762 0-1.376-.617-1.376-1.377 0-.758.614-1.375 1.376-1.375.76 0 1.376.617 1.376 1.375 0 .76-.617 1.377-1.376 1.377zm1.188 8.68H2.37V6h2.376v7.635zM14.816 0H1.18C.528 0 0 .516 0 1.153v13.694C0 15.484.528 16 1.18 16h13.635c.652 0 1.185-.516 1.185-1.153V1.153C16 .516 15.467 0 14.815 0z" fill-rule="nonzero"/>
	</symbol>
	<symbol id="medium" viewBox="0 0 16 16">
		<path d="M11.824 12.628l-.276.45.798.398 2.744 1.372c.15.076.294.11.418.11.278 0 .467-.177.467-.492V5.883l-4.15 6.745zm4.096-8.67c-.004-.003 0-.01-.003-.012l-4.825-2.412c-.06-.03-.123-.038-.187-.044-.016 0-.03-.01-.047-.01-.184 0-.368.092-.467.254l-.24.39-.5.814-1.89 3.08 1.89 3.076.5.813.5.812.59.95 4.71-7.64c.02-.03.01-.06-.02-.08zm-6.27 7.045L7.17 6.97l-.295-.477-.294-.477-.25-.416v4.867l3.32 1.663.5.25.5.25-.5-.813-.5-.813zM.737 1.68L.59 1.608c-.085-.042-.166-.062-.24-.062-.206 0-.35.16-.35.427v10.162c0 .272.2.594.442.716l4.145 2.08c.107.06.208.08.3.08.257 0 .438-.2.438-.53V4.01c0-.02-.012-.04-.03-.047L.738 1.68z"/>
	</symbol>
	<symbol id="pinterest" viewBox="0 0 16 16">
		<path d="M8 0C3.582 0 0 3.582 0 8c0 3.39 2.108 6.285 5.084 7.45-.07-.633-.133-1.604.028-2.295.146-.625.938-3.977.938-3.977s-.24-.48-.24-1.188c0-1.11.646-1.943 1.448-1.943.683 0 1.012.513 1.012 1.127 0 .687-.436 1.713-.662 2.664-.19.797.4 1.445 1.185 1.445 1.42 0 2.514-1.498 2.514-3.662 0-1.915-1.376-3.254-3.342-3.254-2.276 0-3.61 1.707-3.61 3.472 0 .687.263 1.424.593 1.825.066.08.075.15.057.23-.06.252-.196.796-.223.907-.035.146-.115.178-.268.107-.998-.465-1.624-1.926-1.624-3.1 0-2.524 1.834-4.84 5.287-4.84 2.774 0 4.932 1.977 4.932 4.62 0 2.757-1.74 4.977-4.153 4.977-.81 0-1.572-.422-1.833-.92l-.5 1.902c-.18.695-.667 1.566-.994 2.097.75.232 1.545.357 2.37.357 4.417 0 8-3.582 8-8s-3.583-8-8-8z" fill-rule="nonzero"/>
	</symbol>
	<symbol id="rss" viewBox="0 0 16 16">
		<path d="M12.8 16C12.8 8.978 7.022 3.2 0 3.2V0c8.777 0 16 7.223 16 16h-3.2zM2.194 11.61c1.21 0 2.195.985 2.195 2.196 0 1.21-.985 2.194-2.196 2.194C.984 16 0 15.017 0 13.806c0-1.21.983-2.195 2.194-2.195zM10.606 16h-3.11c0-4.113-3.383-7.497-7.496-7.497v-3.11c5.818 0 10.606 4.79 10.606 10.607z"/>
	</symbol>
	<symbol id="reddit" viewBox="0 0 16 16">
		<path d="M1.473 9.368c-.04.185-.06.374-.06.566 0 2.3 2.94 4.173 6.554 4.173 3.613 0 6.553-1.872 6.553-4.173 0-.183-.02-.364-.055-.54l-.01-.022c-.013-.036-.02-.073-.02-.11-.2-.784-.745-1.497-1.533-2.072-.03-.01-.058-.026-.084-.047-.017-.013-.03-.028-.044-.043-1.198-.824-2.91-1.34-4.807-1.34-1.88 0-3.576.506-4.772 1.315-.01.012-.02.023-.033.033-.026.022-.056.04-.087.05-.805.576-1.364 1.293-1.572 2.086 0 .038-.01.077-.025.114l-.005.01zM8 13.003c-1.198 0-2.042-.26-2.58-.8-.116-.116-.116-.305 0-.422.117-.11.307-.11.424 0 .42.42 1.125.63 2.155.63 1.03 0 1.73-.2 2.15-.62.11-.11.3-.11.42 0 .11.12.11.31 0 .43-.54.54-1.38.8-2.58.8zM5.592 7.945c-.61 0-1.12.51-1.12 1.12 0 .608.51 1.102 1.12 1.102.61 0 1.103-.494 1.103-1.102 0-.61-.494-1.12-1.103-1.12zm4.83 0c-.61 0-1.12.51-1.12 1.12 0 .608.51 1.102 1.12 1.102.61 0 1.103-.494 1.103-1.102 0-.61-.494-1.12-1.103-1.12zM13.46 6.88c.693.556 1.202 1.216 1.462 1.94.3-.225.48-.578.48-.968 0-.67-.545-1.214-1.214-1.214-.267 0-.52.087-.728.243zM1.812 6.64c-.67 0-1.214.545-1.214 1.214 0 .363.16.7.43.927.268-.72.782-1.37 1.478-1.92-.202-.14-.443-.22-.694-.22zm6.155 8.067c-3.944 0-7.152-2.14-7.152-4.77 0-.183.016-.363.046-.54-.53-.33-.86-.91-.86-1.545 0-1 .82-1.812 1.82-1.812.45 0 .87.164 1.2.455 1.24-.796 2.91-1.297 4.75-1.33l1.21-3.69.27.063s.01 0 .01.002l2.82.663c.23-.533.76-.908 1.38-.908.82 0 1.49.67 1.49 1.492 0 .823-.67 1.492-1.49 1.492s-1.49-.67-1.49-1.49L9.4 2.18l-.98 2.99c1.77.07 3.37.57 4.57 1.35.33-.31.764-.48 1.225-.48 1 0 1.814.81 1.814 1.81 0 .66-.36 1.26-.92 1.58.02.17.04.33.04.5-.01 2.63-3.21 4.77-7.16 4.77zM13.43 1.893c-.494 0-.895.4-.895.894 0 .493.4.894.894.894.49 0 .89-.4.89-.89s-.4-.89-.9-.89z"/>
	</symbol>
	<symbol id="skype" viewBox="0 0 16 16">
		<path d="M8.035 12.6c-2.685 0-3.885-1.322-3.885-2.313 0-.51.374-.865.89-.865 1.15 0 .85 1.653 2.995 1.653 1.096 0 1.703-.597 1.703-1.208 0-.368-.18-.775-.904-.954l-2.387-.597C4.524 7.833 4.175 6.79 4.175 5.812c0-2.034 1.91-2.798 3.704-2.798 1.65 0 3.6.916 3.6 2.136 0 .523-.452.827-.97.827-.98 0-.798-1.36-2.773-1.36-.98 0-1.523.444-1.523 1.08 0 .636.774.84 1.446.993l1.767.392c1.936.433 2.427 1.566 2.427 2.633 0 1.652-1.266 2.886-3.82 2.886m7.4-3.264l-.014.084-.028-.16c.015.024.028.05.042.076.082-.45.125-.912.125-1.373 0-1.023-.2-2.014-.595-2.948-.38-.902-.925-1.712-1.62-2.407-.692-.696-1.5-1.242-2.4-1.623C10.015.59 9.025.39 8.005.39c-.48 0-.963.045-1.43.135H6.57l.08.04-.16-.023.08-.016C5.927.183 5.205 0 4.472 0 3.278 0 2.155.466 1.31 1.313.465 2.16 0 3.286 0 4.483c0 .763.195 1.512.563 2.175l.013-.083.028.16c-.015-.026-.027-.052-.04-.077-.076.43-.115.867-.115 1.305 0 1.022.2 2.014.593 2.948.38.903.925 1.713 1.62 2.408.693.695 1.5 1.242 2.4 1.623.932.397 1.92.597 2.94.597.445 0 .89-.04 1.325-.118l-.077-.043.162.028-.084.014c.67.378 1.426.58 2.2.58 1.194 0 2.317-.466 3.162-1.313.845-.846 1.31-1.972 1.31-3.17 0-.765-.197-1.517-.566-2.18" fill-rule="nonzero"/>
	</symbol>
	<symbol id="tumblr" viewBox="0 0 16 16">
		<path d="M9.708 16c-3.396 0-4.687-2.504-4.687-4.274V6.498H3.403V4.432C5.83 3.557 6.412 1.368 6.55.12c.01-.086.077-.12.115-.12H9.01v4.076h3.2v2.422H8.997v4.98c.01.667.25 1.58 1.472 1.58h.067c.424-.012.994-.136 1.29-.278l.77 2.283c-.288.424-1.594.916-2.77.936h-.12z" fill-rule="nonzero"/>
	</symbol>
	<symbol id="twitch" viewBox="0 0 16 16">
		<g fill-rule="nonzero">
			<path d="M1.393 0L.35 2.783v11.13h3.824V16h2.088l2.085-2.088h3.13L15.65 9.74V0H1.394zm1.39 1.39H14.26v7.653l-2.435 2.435H8l-2.085 2.085v-2.085H2.783V1.39z"/>
			<path d="M6.61 8.348H8V4.175H6.61v4.173zm3.824 0h1.39V4.175h-1.39v4.173z"/>
		</g>
	</symbol>
	<symbol id="twitter" viewBox="0 0 16 16">
		<path d="M16 3.038c-.59.26-1.22.437-1.885.517.677-.407 1.198-1.05 1.443-1.816-.634.375-1.337.648-2.085.795-.598-.638-1.45-1.036-2.396-1.036-1.812 0-3.282 1.468-3.282 3.28 0 .258.03.51.085.75C5.152 5.39 2.733 4.084 1.114 2.1.83 2.583.67 3.147.67 3.75c0 1.14.58 2.143 1.46 2.732-.538-.017-1.045-.165-1.487-.41v.04c0 1.59 1.13 2.918 2.633 3.22-.276.074-.566.114-.865.114-.21 0-.416-.02-.617-.058.418 1.304 1.63 2.253 3.067 2.28-1.124.88-2.54 1.404-4.077 1.404-.265 0-.526-.015-.783-.045 1.453.93 3.178 1.474 5.032 1.474 6.038 0 9.34-5 9.34-9.338 0-.143-.004-.284-.01-.425.64-.463 1.198-1.04 1.638-1.7z" fill-rule="nonzero"/>
	</symbol>
	<symbol id="vimeo" viewBox="0 0 16 16">
		<path d="M15.992 4.275c-.07 1.56-1.16 3.697-3.263 6.41-2.176 2.832-4.017 4.248-5.522 4.248-.933 0-1.722-.862-2.367-2.588L3.55 7.6c-.48-1.724-.993-2.587-1.542-2.587-.12 0-.538.252-1.255.755L0 4.796C.79 4.1 1.568 3.406 2.335 2.71c1.053-.912 1.844-1.39 2.37-1.44 1.246-.12 2.012.733 2.3 2.56.31 1.97.526 3.194.647 3.673.36 1.634.754 2.45 1.185 2.45.335 0 .838-.53 1.51-1.59.67-1.06 1.028-1.866 1.076-2.42.096-.915-.263-1.374-1.077-1.374-.383 0-.778.087-1.185.262.788-2.58 2.29-3.834 4.508-3.762 1.644.048 2.42 1.116 2.324 3.205z" fill-rule="nonzero"/>
	</symbol>
	<symbol id="youtube" viewBox="0 0 16 16">
		<path d="M0 7.345c0-1.294.16-2.59.16-2.59s.156-1.1.636-1.587c.608-.637 1.408-.617 1.764-.684C3.84 2.36 8 2.324 8 2.324s3.362.004 5.6.166c.314.038.996.04 1.604.678.48.486.636 1.588.636 1.588S16 6.05 16 7.346v1.258c0 1.296-.16 2.59-.16 2.59s-.156 1.102-.636 1.588c-.608.638-1.29.64-1.604.678-2.238.162-5.6.166-5.6.166s-4.16-.037-5.44-.16c-.356-.067-1.156-.047-1.764-.684-.48-.487-.636-1.587-.636-1.587S0 9.9 0 8.605v-1.26zm6.348 2.73V5.58l4.323 2.255-4.32 2.24h-.002z"/>
	</symbol>
	<symbol id="link" viewBox="0 0 16 16">
		<path d="M5.86 12.7l-.81.8c-.7.7-1.84.7-2.54 0a1.75 1.75 0 0 1 0-2.5l2.98-2.96c.61-.61 1.77-1.52 2.62-.68a1 1 0 1 0 1.4-1.4c-1.44-1.43-3.57-1.17-5.42.67L1.1 9.6a3.72 3.72 0 0 0 0 5.32 3.78 3.78 0 0 0 5.34 0l.8-.8a1 1 0 1 0-1.39-1.42zm9.03-11.5c-1.55-1.53-3.7-1.6-5.14-.19l-1 1a1 1 0 1 0 1.39 1.41l1-1c.75-.74 1.72-.43 2.35.2a1.75 1.75 0 0 1 0 2.5l-3.17 3.15c-1.46 1.45-2.14.77-2.43.48a1 1 0 0 0-1.4 1.4c.67.67 1.43 1 2.23 1 .98 0 2.01-.5 3-1.47l3.17-3.15a3.72 3.72 0 0 0 0-5.32z"/>
	</symbol>
	<symbol id="email" viewBox="0 0 16 11">
		<path fill-rule="evenodd" d="M1.33 0h13.34L8 5 1.33 0zM16 0v11H0V0l8 6 8-6z"/>
	</symbol>
	<symbol id="nav" viewBox="0 0 16 11">
		<path d="M0 12h16v-2H0v2zm0-5h16V5H0v2zm0-7v2h16V0H0z"/>
	</symbol>
	<symbol id="opling" viewBox="0 0 16 11">
		<path d="M6015 11714 c-22 -2 -103 -9 -180 -15 -851 -68 -1721 -367 -2456
-844 -344 -224 -605 -437 -909 -744 -919 -927 -1461 -2134 -1549 -3455 -44
-646 47 -1370 249 -2001 102 -315 292 -745 460 -1035 653 -1128 1691 -1987
2915 -2410 1220 -423 2573 -392 3770 85 921 367 1732 990 2330 1790 467 624
794 1345 955 2103 293 1381 41 2806 -708 4002 -315 504 -754 994 -1214 1357
-608 480 -1288 818 -2015 1003 -461 117 -792 160 -1283 165 -179 2 -343 1
-365 -1z m625 -144 c1124 -77 2146 -478 3005 -1178 856 -698 1478 -1665 1761
-2738 168 -637 212 -1328 128 -2009 -129 -1052 -612 -2093 -1333 -2874 -199
-216 -391 -396 -587 -553 -666 -533 -1403 -881 -2224 -1052 -1157 -241 -2371
-85 -3425 441 -724 362 -1368 899 -1856 1548 -888 1180 -1236 2666 -968 4130
254 1384 1087 2639 2269 3420 770 508 1631 800 2555 864 173 12 507 12 675 1z"/>
		<path d="M5947 10112 c-10 -10 -17 -22 -17 -25 0 -4 -20 -53 -44 -110 -24 -56
-46 -116 -50 -133 -8 -36 -64 -77 -166 -119 -36 -15 -96 -44 -135 -65 -59 -32
-200 -88 -395 -158 -80 -28 -203 -22 -387 21 -152 35 -173 37 -325 37 -128 0
-181 -4 -246 -20 -46 -11 -91 -20 -100 -20 -35 -1 -231 -89 -362 -162 -238
-134 -409 -247 -605 -398 -227 -175 -257 -199 -308 -246 -95 -88 -228 -267
-323 -435 -89 -159 -114 -207 -145 -281 -32 -77 -93 -322 -109 -435 -5 -38
-17 -115 -25 -173 -13 -81 -17 -196 -18 -500 -2 -393 -2 -396 26 -548 28 -152
40 -200 99 -382 36 -113 105 -254 159 -325 21 -27 79 -88 129 -134 130 -119
132 -124 140 -361 8 -213 4 -198 92 -424 62 -159 177 -359 259 -449 106 -119
231 -226 332 -284 34 -20 76 -46 92 -59 73 -53 198 -104 331 -134 247 -56 341
-64 556 -51 164 10 168 11 355 71 237 77 221 72 332 115 133 51 297 142 363
201 13 11 36 29 53 39 75 47 317 270 417 384 332 383 350 397 808 641 214 114
254 137 258 148 5 15 -101 24 -186 16 -245 -22 -681 -235 -952 -464 -30 -25
-82 -66 -115 -90 -33 -24 -87 -69 -120 -100 -227 -213 -332 -290 -527 -387
-91 -45 -430 -127 -691 -168 -112 -17 -328 -20 -408 -5 -107 20 -466 225 -540
308 -143 162 -209 320 -209 502 0 87 3 108 22 142 30 53 64 70 120 60 69 -13
113 -39 131 -77 30 -63 88 -117 167 -153 91 -42 138 -47 357 -34 145 8 167 12
217 36 80 39 156 115 156 156 0 78 -72 117 -232 129 l-92 6 60 44 c32 24 73
57 90 73 l31 29 52 -35 c74 -50 138 -67 276 -73 146 -6 273 13 384 59 123 51
179 130 153 217 -19 63 -25 65 -302 116 -74 14 -140 31 -148 39 -12 11 5 30
112 126 69 61 129 117 133 124 14 22 197 172 280 230 45 31 118 78 163 106 88
54 120 60 209 39 49 -11 175 -84 233 -135 20 -18 50 -40 66 -48 56 -29 57 -38
16 -113 -21 -37 -44 -73 -52 -79 -8 -5 -16 -31 -19 -56 -5 -39 -2 -47 14 -52
18 -6 1826 -25 2490 -26 207 -1 350 3 360 9 23 13 350 342 400 403 21 25 97
111 168 190 72 79 157 175 190 213 57 66 107 120 488 514 87 90 183 194 212
231 30 38 86 97 125 131 39 35 100 99 136 142 61 71 66 81 61 113 -7 43 -20
59 -72 92 -65 41 -531 380 -545 397 -15 18 -55 20 -69 3 -49 -61 -103 -124
-281 -323 -112 -126 -238 -268 -280 -314 -41 -46 -99 -112 -129 -145 -30 -34
-102 -113 -161 -176 -59 -63 -134 -146 -167 -185 -33 -38 -77 -86 -99 -105
-21 -20 -64 -67 -94 -105 -30 -39 -93 -114 -140 -169 l-85 -99 -495 7 c-272 3
-614 9 -760 12 l-265 6 -65 67 c-36 37 -92 86 -125 108 -33 23 -112 92 -175
155 -139 136 -184 210 -230 376 -31 111 -32 114 -20 219 6 59 16 115 21 124
21 40 168 125 198 115 9 -3 43 -14 76 -26 72 -25 400 -103 505 -119 41 -7 104
-18 140 -26 252 -53 925 -41 1049 18 14 7 37 32 53 56 31 50 35 95 18 211 -17
117 -35 164 -203 525 -64 137 -189 340 -259 422 -276 323 -468 516 -643 647
l-58 43 -1 149 c-1 145 -2 151 -32 214 -59 124 -122 170 -195 140 -16 -7 -78
-65 -138 -128 l-108 -115 -80 22 c-44 11 -109 21 -147 21 l-67 0 -92 94 c-149
151 -256 207 -300 158z m153 -166 c110 -92 236 -279 335 -496 60 -129 88 -174
118 -184 31 -11 67 14 67 47 0 22 -122 268 -181 364 -44 71 -43 72 53 52 202
-41 522 -220 713 -398 33 -31 89 -81 123 -111 35 -30 107 -104 160 -165 53
-60 132 -148 175 -195 95 -103 223 -303 299 -465 179 -384 181 -389 151 -399
-46 -16 -137 -124 -174 -208 l-24 -56 -120 -13 c-96 -10 -151 -10 -280 0 -172
13 -380 40 -485 64 -36 8 -99 20 -140 27 -91 14 -396 90 -500 124 -288 94
-451 171 -620 290 -135 96 -254 166 -282 166 -28 0 -48 -17 -48 -41 0 -23 71
-84 200 -173 205 -142 363 -231 515 -291 39 -15 71 -29 73 -30 2 -2 -18 -23
-45 -48 -64 -60 -83 -114 -83 -232 0 -239 86 -490 210 -614 85 -85 216 -203
300 -268 90 -71 129 -115 159 -175 18 -38 20 -54 14 -99 -7 -45 -12 -55 -30
-57 -27 -4 -117 41 -224 113 -46 31 -111 71 -143 88 -153 82 -265 137 -309
152 -36 13 -58 30 -88 67 -21 27 -39 54 -39 59 0 4 -20 49 -44 98 -49 101
-108 290 -131 426 -21 126 -32 154 -61 161 -45 12 -57 -11 -49 -96 26 -275
152 -595 344 -870 73 -105 161 -195 296 -303 153 -122 245 -228 245 -280 0
-46 -97 -51 -216 -12 -124 41 -249 107 -382 202 -177 127 -298 204 -340 218
-24 8 -67 10 -123 5 -73 -5 -99 -12 -175 -49 -189 -90 -331 -190 -474 -331
-57 -56 -188 -175 -250 -226 -19 -16 -57 -50 -85 -75 -27 -26 -106 -92 -175
-148 -69 -56 -147 -122 -175 -147 -27 -25 -82 -66 -121 -91 -79 -52 -98 -74
-89 -103 8 -26 54 -38 209 -56 71 -8 133 -17 137 -20 30 -18 -22 -84 -95 -122
-49 -26 -57 -27 -216 -27 -253 0 -301 20 -416 176 -50 67 -94 84 -221 84 -102
0 -125 -14 -172 -108 -28 -56 -34 -80 -39 -155 -5 -102 21 -251 65 -362 39
-98 124 -219 212 -302 69 -65 100 -85 252 -161 96 -48 206 -96 244 -107 39
-11 87 -25 107 -32 85 -25 440 8 698 67 372 84 410 98 610 233 129 87 174 125
320 267 122 118 460 395 570 467 101 66 352 178 398 178 27 0 -24 -45 -91 -81
-201 -107 -459 -316 -677 -549 -192 -206 -455 -413 -640 -503 -121 -59 -306
-131 -407 -157 -43 -12 -105 -30 -138 -40 -158 -50 -395 -69 -575 -45 -113 15
-154 22 -315 57 -27 6 -61 19 -75 28 -14 10 -52 31 -85 47 -65 31 -264 176
-349 254 -52 47 -141 169 -201 274 -16 28 -40 68 -54 90 -32 50 -85 174 -119
280 -22 70 -26 104 -32 275 -5 144 -12 207 -24 241 -13 35 -46 74 -144 171
-103 101 -136 141 -174 209 -71 129 -144 358 -180 564 -21 121 -23 159 -22
535 0 428 5 500 51 725 53 266 86 357 198 555 147 259 255 399 402 520 175
145 386 299 513 375 58 34 151 91 208 126 224 139 339 194 477 230 79 21 113
24 270 24 174 0 185 -1 325 -37 80 -20 177 -40 216 -44 150 -14 371 50 634
182 96 49 179 90 184 93 4 2 5 -5 2 -15 -12 -39 -36 -284 -42 -430 -7 -151 -7
-151 17 -167 31 -22 152 -23 216 -1 49 17 109 54 152 95 24 22 24 24 17 159
-4 75 -4 144 -1 153 16 41 71 -15 157 -160 44 -75 78 -96 78 -50 0 34 -97 191
-155 254 -40 42 -57 53 -82 53 -62 0 -66 -13 -58 -205 9 -196 14 -182 -87
-242 -37 -22 -68 -33 -103 -34 l-50 -3 1 94 c2 129 32 435 49 490 8 25 21 80
29 123 14 71 84 257 96 257 3 0 39 -29 80 -64z m839 -18 c41 -64 54 -106 59
-189 3 -52 1 -89 -5 -92 -6 -4 -37 10 -69 31 -33 21 -83 51 -111 68 -29 16
-52 32 -50 35 4 10 151 169 157 169 3 0 12 -10 19 -22z m2934 -1846 c50 -37
179 -130 285 -206 l193 -139 -143 -148 c-79 -81 -199 -207 -268 -281 -69 -73
-213 -225 -321 -338 -108 -113 -249 -266 -314 -340 -65 -74 -155 -175 -201
-225 -45 -49 -97 -108 -115 -130 -68 -81 -360 -365 -370 -360 -5 4 -9 14 -9
25 0 10 -27 98 -59 196 -33 99 -69 217 -81 264 -12 46 -31 110 -41 142 l-20
58 95 117 c52 65 144 172 203 239 59 66 198 221 308 344 454 508 563 630 658
738 55 61 102 112 104 112 2 0 45 -31 96 -68z m-1714 -238 c1 -46 -3 -75 -11
-81 -15 -12 -167 -37 -175 -30 -17 18 67 137 129 184 52 39 56 33 57 -73z
m-1968 -1234 l80 -41 -18 -30 c-33 -57 -37 -56 -102 26 -34 42 -61 78 -61 81
0 10 26 1 101 -36z m1033 -30 l218 0 -7 -27 c-3 -16 -38 -93 -77 -173 -39 -80
-99 -215 -134 -300 l-63 -155 -282 -3 -281 -2 32 36 c27 31 31 42 25 72 l-6
34 48 -6 c26 -4 60 -9 74 -12 22 -4 31 1 50 28 36 50 116 184 159 265 45 84
41 97 -34 108 -41 7 -43 8 -54 53 -6 26 -15 58 -18 71 l-7 24 69 -6 c38 -4
167 -7 288 -7z m306 -17 c0 -10 -28 -97 -61 -193 -34 -96 -80 -238 -103 -315
l-41 -140 -40 -3 c-21 -2 -54 -1 -72 3 l-33 6 16 37 c8 20 33 82 54 137 20 55
69 163 107 240 38 77 78 164 90 193 20 47 25 52 52 52 23 0 31 -5 31 -17z
m124 1 c-1 -5 -25 -94 -53 -199 -28 -104 -65 -242 -82 -305 -17 -63 -33 -123
-35 -132 -4 -15 -17 -18 -70 -18 -35 0 -64 4 -64 8 0 22 66 237 128 417 38
110 71 210 74 223 6 20 11 22 55 18 26 -2 47 -8 47 -12z m124 -31 c-5 -21 -25
-92 -44 -158 -19 -66 -43 -160 -54 -210 -11 -49 -30 -127 -41 -172 l-22 -83
-54 0 c-39 0 -53 4 -53 14 0 22 146 582 165 634 3 7 24 12 59 12 l54 0 -10
-37z m107 10 c-25 -100 -125 -589 -125 -612 0 -19 -6 -21 -55 -21 -30 0 -55 4
-55 10 0 22 72 329 104 442 19 68 39 142 46 166 10 41 12 42 51 42 40 0 41 -1
34 -27z m110 -20 c-4 -27 -20 -115 -36 -198 -23 -120 -59 -369 -59 -407 0 -4
-27 -8 -60 -8 -37 0 -60 4 -60 11 0 14 44 243 75 384 13 61 31 145 40 188 l16
77 45 0 45 0 -6 -47z m115 25 c0 -13 -11 -113 -25 -223 -14 -110 -28 -248 -31
-307 l-7 -108 -64 0 c-34 0 -63 3 -63 8 0 36 34 284 50 361 10 53 24 128 30
166 20 132 16 125 66 125 39 0 44 -3 44 -22z m63 5 c-4 -18 -23 -502 -23 -575
l0 -68 -42 0 -41 0 7 119 c3 66 18 209 31 318 14 109 25 204 25 211 0 8 9 12
23 10 12 -2 21 -9 20 -15z m81 -85 c3 -57 8 -205 12 -330 l6 -228 -51 0 -50 0
4 98 c3 53 7 189 10 302 7 244 9 260 40 260 22 0 23 -4 29 -102z m52 94 c6 -4
17 -45 23 -92 7 -47 28 -179 46 -295 19 -115 35 -223 37 -239 l3 -30 -60 3
c-33 1 -61 3 -61 4 -6 7 -26 627 -21 640 7 18 16 21 33 9z m107 -137 c54 -185
70 -235 115 -365 63 -182 65 -162 -14 -158 l-69 3 -52 310 c-29 171 -52 318
-53 328 0 12 6 17 17 15 13 -2 28 -37 56 -133z m-1957 41 c24 -17 43 -36 43
-43 1 -16 -71 -113 -84 -113 -5 1 -43 32 -84 70 l-73 69 33 50 32 51 45 -26
c25 -15 65 -41 88 -58z m203 -131 c55 -27 140 -42 183 -32 27 7 48 44 48 82 0
22 5 25 34 25 19 0 38 -5 41 -10 7 -11 -31 -83 -113 -220 -29 -47 -55 -91 -59
-98 -6 -11 -26 -12 -90 -7 l-81 7 -46 63 c-25 34 -66 81 -91 104 -25 23 -45
44 -45 47 0 3 18 32 40 65 l41 59 42 -29 c23 -15 66 -41 96 -56z m-596 -318
c40 -23 94 -54 121 -67 l50 -25 -65 -3 c-35 -2 -110 -1 -166 3 l-102 7 21 41
c30 60 49 87 60 87 5 0 42 -19 81 -43z m-1398 -381 c20 -14 57 -27 83 -31 105
-12 216 -35 250 -52 32 -16 37 -23 37 -53 0 -29 -6 -38 -40 -61 -54 -37 -97
-48 -239 -64 -184 -21 -366 9 -383 62 -2 6 27 35 64 64 37 29 94 77 125 106
31 29 59 53 62 53 3 0 21 -11 41 -24z"/>
		<path d="M6819 8736 c-98 -67 -92 -174 13 -227 47 -24 77 -20 126 18 49 37 64
87 47 161 -14 66 -119 93 -186 48z"/>
		<path d="M8020 3462 c-106 -84 -133 -129 -128 -217 3 -55 13 -77 128 -285 113
-203 128 -225 153 -228 35 -4 57 13 57 46 0 28 -25 74 -154 287 -77 128 -91
156 -91 193 0 48 1 49 124 145 38 30 61 55 61 67 0 23 -34 60 -52 59 -7 0 -51
-31 -98 -67z"/>
		<path d="M4385 3412 c-128 -45 -224 -131 -286 -256 -50 -102 -64 -185 -49
-277 30 -174 144 -304 324 -367 60 -21 84 -24 167 -20 87 3 104 7 172 41 223
110 302 383 182 635 -47 99 -119 173 -214 220 -66 33 -85 37 -160 40 -63 2
-100 -3 -136 -16z m247 -104 c107 -49 183 -141 213 -254 56 -215 -49 -410
-248 -460 -81 -21 -162 -13 -243 25 -84 39 -138 91 -176 169 -28 56 -34 80
-36 153 -4 81 -2 91 31 162 90 195 288 283 459 205z"/>
		<path d="M7628 3215 c-10 -23 -5 -39 45 -139 31 -63 57 -119 57 -126 0 -13
-295 -160 -322 -160 -16 0 -39 50 -89 194 -17 48 -49 72 -77 57 -11 -6 -22
-17 -25 -25 -5 -13 187 -594 206 -623 20 -32 97 -2 97 38 0 8 -20 68 -45 133
-24 66 -43 121 -42 122 1 1 67 32 147 69 80 37 154 74 165 81 11 8 24 14 30
14 6 0 36 -52 65 -116 60 -129 80 -149 125 -120 44 29 40 40 -122 348 -136
261 -147 278 -178 278 -17 0 -29 -8 -37 -25z"/>
		<path d="M5142 3158 c-22 -43 -241 -786 -242 -819 0 -9 9 -24 20 -34 16 -15
26 -17 47 -9 24 8 30 24 80 214 30 113 66 243 79 290 13 47 35 128 50 181 l27
96 86 -23 c47 -13 140 -36 206 -49 65 -14 121 -27 123 -29 2 -2 -4 -44 -12
-93 -74 -423 -107 -643 -104 -683 2 -28 9 -37 31 -44 49 -18 61 8 85 189 12
88 37 269 57 403 36 253 40 297 27 306 -4 2 -75 18 -157 35 -83 17 -197 45
-254 61 -124 36 -134 36 -149 8z"/>
		<path d="M6088 2963 c-100 -230 -240 -512 -344 -694 -51 -88 -56 -124 -19
-141 19 -8 29 -8 48 5 24 16 240 433 313 604 21 51 41 93 44 93 3 0 29 -70 58
-155 68 -199 207 -542 228 -566 22 -24 46 -24 67 -1 25 27 22 39 -32 159 -64
143 -166 404 -226 578 -27 77 -53 146 -58 153 -5 6 -20 12 -34 12 -19 0 -28
-10 -45 -47z"/>
		<path d="M6999 2937 c-9 -20 -1 -56 41 -198 55 -182 62 -241 38 -299 -63 -151
-268 -200 -381 -92 -45 43 -54 68 -92 263 -37 186 -46 209 -87 209 -10 0 -24
-10 -32 -22 -13 -21 -11 -43 19 -209 18 -102 41 -203 50 -225 34 -83 132 -157
228 -172 120 -19 240 22 321 108 26 28 49 50 51 50 3 0 5 -9 5 -20 0 -11 11
-27 24 -35 19 -13 28 -14 50 -4 50 23 52 17 -80 424 -36 110 -72 210 -80 223
-20 30 -61 29 -75 -1z"/>
	</symbol>
</svg>
