<?xml version="1.0" standalone="no"?>
<!DOCTYPE svg PUBLIC "-//W3C//DTD SVG 20010904//EN"
 "http://www.w3.org/TR/2001/REC-SVG-20010904/DTD/svg10.dtd">
<svg version="1.0" xmlns="http://www.w3.org/2000/svg"
 width="32.000000pt" height="32.000000pt" viewBox="0 0 32.000000 32.000000"
 preserveAspectRatio="xMidYMid meet">

<g transform="translate(0.000000,32.000000) scale(0.100000,-0.100000)"
fill="#000000" stroke="none">
<path d="M111 295 c0 -5 6 -21 14 -35 25 -44 19 -65 -25 -85 -22 -10 -38 -20
-36 -22 2 -3 18 3 35 11 48 25 66 21 86 -24 10 -22 20 -38 22 -36 3 2 -3 18
-11 35 -25 48 -21 66 24 86 22 10 38 20 36 22 -2 3 -18 -3 -35 -11 -48 -25
-65 -20 -88 27 -12 23 -22 38 -22 32z"/>
<path d="M120 145 c0 -8 5 -15 10 -15 6 0 10 7 10 15 0 8 -4 15 -10 15 -5 0
-10 -7 -10 -15z"/>
<path d="M120 78 c0 -12 -89 -58 -111 -58 -5 0 -9 -4 -9 -10 0 -6 60 -10 160
-10 164 0 197 9 118 31 -24 7 -47 16 -52 21 -6 4 -24 8 -42 8 -19 0 -34 6 -38
15 -7 18 -26 20 -26 3z"/>
</g>
</svg>
